<?xml version="1.0" ?><!DOCTYPE svg  PUBLIC '-//W3C//DTD SVG 1.1//EN'  'http://www.w3.org/Graphics/SVG/1.1/DTD/svg11.dtd'><svg height="100%" style="fill-rule:evenodd;clip-rule:evenodd;stroke-linejoin:round;stroke-miterlimit:2;" version="1.1" viewBox="0 0 64 64" width="100%" xml:space="preserve" xmlns="http://www.w3.org/2000/svg" xmlns:serif="http://www.serif.com/" xmlns:xlink="http://www.w3.org/1999/xlink"><g transform="matrix(1,0,0,1,-720,-80)"><g id="slack-apps-platform" transform="matrix(1,0,0,1,720,80)"><rect height="64" style="fill:none;" width="64" x="0" y="0"/><g transform="matrix(1,0,0,1,-720,-80)"><path d="M780,104.5C780,101.462 777.538,99 774.5,99L774.5,99C771.462,99 769,101.462 769,104.5L769,109C769,109.552 769.448,110 770,110C771.046,110 772.773,110 774.5,110C777.538,110 780,107.538 780,104.5L780,104.5ZM765,89.5C765,86.464 762.536,84 759.5,84C756.464,84 754,86.464 754,89.5L754,104.5C754,107.536 756.464,110 759.5,110C762.536,110 765,107.536 765,104.5L765,89.5Z" style="fill:rgb(149,214,164);"/></g><g transform="matrix(6.12323e-17,1,-1,6.12323e-17,144,-720)"><path d="M780,104.5C780,101.462 777.538,99 774.5,99L774.5,99C771.462,99 769,101.462 769,104.5L769,109C769,109.552 769.448,110 770,110C771.046,110 772.773,110 774.5,110C777.538,110 780,107.538 780,104.5L780,104.5ZM765,89.5C765,86.464 762.536,84 759.5,84C756.464,84 754,86.464 754,89.5L754,104.5C754,107.536 756.464,110 759.5,110C762.536,110 765,107.536 765,104.5L765,89.5Z" style="fill:rgb(252,184,96);"/></g><g transform="matrix(-1,-1.22465e-16,1.22465e-16,-1,784,144)"><path d="M780,104.5C780,101.462 777.538,99 774.5,99L774.5,99C771.462,99 769,101.462 769,104.5L769,109C769,109.552 769.448,110 770,110C771.046,110 772.773,110 774.5,110C777.538,110 780,107.538 780,104.5L780,104.5ZM765,89.5C765,86.464 762.536,84 759.5,84C756.464,84 754,86.464 754,89.5L754,104.5C754,107.536 756.464,110 759.5,110C762.536,110 765,107.536 765,104.5L765,89.5Z" style="fill:rgb(221,99,110);"/></g><g transform="matrix(6.12323e-17,-1,1,6.12323e-17,-80,784)"><path d="M780,104.5C780,101.462 777.538,99 774.5,99L774.5,99C771.462,99 769,101.462 769,104.5L769,109C769,109.552 769.448,110 770,110C771.046,110 772.773,110 774.5,110C777.538,110 780,107.538 780,104.5L780,104.5ZM765,89.5C765,86.464 762.536,84 759.5,84C756.464,84 754,86.464 754,89.5L754,104.5C754,107.536 756.464,110 759.5,110C762.536,110 765,107.536 765,104.5L765,89.5Z" style="fill:rgb(87,183,235);"/></g><g transform="matrix(1,0,0,1,-720,-80)"><path d="M771.741,99.741C771.27,100.552 771,101.495 771,102.5L771,107C771,107.552 771.448,108 772,108C773.046,108 774.773,108 776.5,108C777.505,108 778.448,107.73 779.259,107.259C778.307,108.898 776.532,110 774.5,110C772.773,110 771.046,110 770,110C769.448,110 769,109.552 769,109L769,104.5C769,102.468 770.102,100.693 771.741,99.741ZM756.742,84.742C756.27,85.552 756,86.495 756,87.5L756,102.5C756,105.536 758.464,108 761.5,108C762.505,108 763.448,107.73 764.258,107.258C763.305,108.897 761.53,110 759.5,110C756.464,110 754,107.536 754,104.5L754,89.5C754,87.47 755.103,85.695 756.742,84.742Z" style="fill:rgb(120,194,164);"/></g><g transform="matrix(1,0,0,1,-720,-80)"><path d="M756,129L756,132.5C756,135.538 758.462,138 761.5,138L761.5,138C762.505,138 763.448,137.73 764.259,137.259C763.307,138.898 761.532,140 759.5,140L759.5,140C756.462,140 754,137.538 754,134.5C754,132.773 754,131.046 754,130C754,129.448 754.448,129 755,129L756,129ZM756.742,114.742C756.27,115.552 756,116.495 756,117.5C756,120.536 758.464,123 761.5,123L776.5,123C777.505,123 778.448,122.73 779.258,122.258C778.305,123.897 776.53,125 774.5,125L759.5,125C756.464,125 754,122.536 754,119.5C754,117.47 755.103,115.695 756.742,114.742Z" style="fill:rgb(252,170,82);"/></g><g transform="matrix(1,0,0,1,-720,-80)"><path d="M741.742,114.742C741.27,115.552 741,116.495 741,117.5L741,132.5C741,135.536 743.464,138 746.5,138C747.505,138 748.448,137.73 749.258,137.258C748.305,138.897 746.53,140 744.5,140C741.464,140 739,137.536 739,134.5L739,119.5C739,117.47 740.103,115.695 741.742,114.742ZM726.741,114.741C726.27,115.552 726,116.495 726,117.5L726,117.5C726,120.538 728.462,123 731.5,123L731.5,123C732.505,123 733.448,122.73 734.259,122.259C733.307,123.898 731.532,125 729.5,125L729.5,125C726.462,125 724,122.538 724,119.5L724,119.5C724,117.468 725.102,115.693 726.741,114.741Z" style="fill:rgb(218,74,84);"/></g><g transform="matrix(1,0,0,1,-720,-80)"><path d="M726.742,99.742C726.27,100.552 726,101.495 726,102.5C726,105.536 728.464,108 731.5,108L746.5,108C747.505,108 748.448,107.73 749.258,107.258C748.305,108.897 746.53,110 744.5,110L729.5,110C726.464,110 724,107.536 724,104.5C724,102.47 725.103,100.695 726.742,99.742ZM741.741,84.741C741.27,85.552 741,86.495 741,87.5L741,87.5C741,90.538 743.462,93 746.5,93L750,93L750,94C750,94.552 749.552,95 749,95L744.5,95C741.462,95 739,92.538 739,89.5L739,89.5C739,87.468 740.102,85.693 741.741,84.741Z" style="fill:rgb(72,145,211);"/></g><g transform="matrix(1,0,0,1,-720,-80)"><path d="M780.5,104.5C780.5,101.186 777.814,98.5 774.5,98.5L774.5,98.5C771.186,98.5 768.5,101.186 768.5,104.5L768.5,109C768.5,109.828 769.172,110.5 770,110.5C771.046,110.5 772.773,110.5 774.5,110.5C777.814,110.5 780.5,107.814 780.5,104.5L780.5,104.5ZM765.5,89.5C765.5,86.189 762.811,83.5 759.5,83.5C756.189,83.5 753.5,86.189 753.5,89.5C753.5,89.5 753.5,104.5 753.5,104.5C753.5,107.811 756.189,110.5 759.5,110.5C762.811,110.5 765.5,107.811 765.5,104.5C765.5,104.5 765.5,89.5 765.5,89.5ZM779.5,104.5L779.5,104.5C779.5,107.261 777.261,109.5 774.5,109.5C772.773,109.5 771.046,109.5 770,109.5C769.724,109.5 769.5,109.276 769.5,109C769.5,107.954 769.5,106.227 769.5,104.5C769.5,101.739 771.739,99.5 774.5,99.5L774.5,99.5C777.261,99.5 779.5,101.739 779.5,104.5ZM764.5,89.5L764.5,104.5C764.5,107.26 762.26,109.5 759.5,109.5C756.74,109.5 754.5,107.26 754.5,104.5L754.5,89.5C754.5,86.74 756.74,84.5 759.5,84.5C762.26,84.5 764.5,86.74 764.5,89.5Z"/></g><g transform="matrix(6.12323e-17,1,-1,6.12323e-17,144,-720)"><path d="M780.5,104.5C780.5,101.186 777.814,98.5 774.5,98.5L774.5,98.5C771.186,98.5 768.5,101.186 768.5,104.5L768.5,109C768.5,109.828 769.172,110.5 770,110.5C771.046,110.5 772.773,110.5 774.5,110.5C777.814,110.5 780.5,107.814 780.5,104.5L780.5,104.5ZM779.5,104.5L779.5,104.5C779.5,107.261 777.261,109.5 774.5,109.5C772.773,109.5 771.046,109.5 770,109.5C769.724,109.5 769.5,109.276 769.5,109C769.5,107.954 769.5,106.227 769.5,104.5C769.5,101.739 771.739,99.5 774.5,99.5L774.5,99.5C777.261,99.5 779.5,101.739 779.5,104.5ZM765.5,89.5C765.5,86.189 762.811,83.5 759.5,83.5C756.189,83.5 753.5,86.189 753.5,89.5L753.5,104.5C753.5,107.811 756.189,110.5 759.5,110.5C762.811,110.5 765.5,107.811 765.5,104.5C765.5,104.5 765.5,89.5 765.5,89.5ZM764.5,89.5L764.5,104.5C764.5,107.26 762.26,109.5 759.5,109.5C756.74,109.5 754.5,107.26 754.5,104.5C754.5,104.5 754.5,89.5 754.5,89.5C754.5,86.74 756.74,84.5 759.5,84.5C762.26,84.5 764.5,86.74 764.5,89.5Z"/></g><g transform="matrix(-1,-1.22465e-16,1.22465e-16,-1,784,144)"><path d="M765.5,89.5C765.5,86.189 762.811,83.5 759.5,83.5C756.189,83.5 753.5,86.189 753.5,89.5C753.5,89.5 753.5,104.5 753.5,104.5C753.5,107.811 756.189,110.5 759.5,110.5C762.811,110.5 765.5,107.811 765.5,104.5L765.5,89.5ZM764.5,89.5L764.5,104.5C764.5,107.26 762.26,109.5 759.5,109.5C756.74,109.5 754.5,107.26 754.5,104.5L754.5,89.5C754.5,86.74 756.74,84.5 759.5,84.5C762.26,84.5 764.5,86.74 764.5,89.5ZM780.5,104.5C780.5,101.186 777.814,98.5 774.5,98.5L774.5,98.5C771.186,98.5 768.5,101.186 768.5,104.5L768.5,109C768.5,109.828 769.172,110.5 770,110.5C771.046,110.5 772.773,110.5 774.5,110.5C777.814,110.5 780.5,107.814 780.5,104.5L780.5,104.5ZM779.5,104.5L779.5,104.5C779.5,107.261 777.261,109.5 774.5,109.5C772.773,109.5 771.046,109.5 770,109.5C769.724,109.5 769.5,109.276 769.5,109C769.5,107.954 769.5,106.227 769.5,104.5C769.5,101.739 771.739,99.5 774.5,99.5L774.5,99.5C777.261,99.5 779.5,101.739 779.5,104.5Z"/></g><g transform="matrix(6.12323e-17,-1,1,6.12323e-17,-80,784)"><path d="M765.5,89.5C765.5,86.189 762.811,83.5 759.5,83.5C756.189,83.5 753.5,86.189 753.5,89.5L753.5,104.5C753.5,107.811 756.189,110.5 759.5,110.5C762.811,110.5 765.5,107.811 765.5,104.5L765.5,89.5ZM764.5,89.5L764.5,104.5C764.5,107.26 762.26,109.5 759.5,109.5C756.74,109.5 754.5,107.26 754.5,104.5C754.5,104.5 754.5,89.5 754.5,89.5C754.5,86.74 756.74,84.5 759.5,84.5C762.26,84.5 764.5,86.74 764.5,89.5ZM780.5,104.5C780.5,101.186 777.814,98.5 774.5,98.5L774.5,98.5C771.186,98.5 768.5,101.186 768.5,104.5L768.5,109C768.5,109.828 769.172,110.5 770,110.5C771.046,110.5 772.773,110.5 774.5,110.5C777.814,110.5 780.5,107.814 780.5,104.5L780.5,104.5ZM779.5,104.5L779.5,104.5C779.5,107.261 777.261,109.5 774.5,109.5C772.773,109.5 771.046,109.5 770,109.5C769.724,109.5 769.5,109.276 769.5,109C769.5,107.954 769.5,106.227 769.5,104.5C769.5,101.739 771.739,99.5 774.5,99.5L774.5,99.5C777.261,99.5 779.5,101.739 779.5,104.5Z"/></g></g></g></svg>